<svg xmlns="http://www.w3.org/2000/svg" viewBox="45 45 355 355" width="50" height="50">
   <style>
      path#p3 {
         fill: #0091da;
      }
      path#p4 {
         fill: #1d428a;
      }
      @media ( prefers-color-scheme: dark ) {
         path#p3 {
            fill: #00e1fb;
         }
         path#p4 {
           fill: #60a1eb;
         }
      }
   </style>
   <path id="p3" d="M62.844 78.27V255.8a15.458 15.458 0 0 0 15.44 15.442h22.332v16H78.284a31.476 31.476 0 0 1-31.44-31.442V78.27a31.476 31.476 0 0 1 31.44-31.44H251.5a31.476 31.476 0 0 1 31.44 31.44v18.054h-16V78.27a15.457 15.457 0 0 0-15.44-15.44H78.284a15.457 15.457 0 0 0-15.44 15.44Zm84.705 274.374h25.189v-16h-25.189a15.457 15.457 0 0 1-15.441-15.44V143.673a15.459 15.459 0 0 1 15.441-15.441H320.76a15.457 15.457 0 0 1 15.44 15.441v30.818h16v-30.818a31.476 31.476 0 0 0-31.44-31.441H147.549a31.476 31.476 0 0 0-31.441 31.441V321.2a31.476 31.476 0 0 0 31.441 31.444Z"/>
   <path id="p4" d="M247.125 294.54a45.974 45.974 0 1 1 45.975-45.974 46.026 46.026 0 0 1-45.975 45.974Zm0-75.948a29.974 29.974 0 1 0 29.975 29.974 30.008 30.008 0 0 0-29.975-29.974ZM353.207 400.623a45.974 45.974 0 1 1 45.975-45.975 46.026 46.026 0 0 1-45.975 45.975Zm0-75.948a29.974 29.974 0 1 0 29.975 29.973 30.008 30.008 0 0 0-29.975-29.973ZM399.127 292.642h-88.15v-88.151h88.15Zm-72.15-16h56.15v-56.151h-56.15ZM290.889 398.88h-88.151v-88.151h88.151Zm-72.151-16h56.151v-56.151h-56.151Z"/>
</svg>

